<?xml version="1.0" encoding="utf-8"?>
<!-- Generator: Adobe Illustrator 24.3.0, SVG Export Plug-In . SVG Version: 6.00 Build 0)  -->
<svg version="1.1" id="레이어_1" xmlns="http://www.w3.org/2000/svg" xmlns:xlink="http://www.w3.org/1999/xlink" x="0px"
	 y="0px" viewBox="0 0 500 100" style="enable-background:new 0 0 500 100;" xml:space="preserve">
<style type="text/css">
	.st0{fill:#00A0E9;}
	.st1{fill:#1D2088;}
</style>
<g>
	<g>
		<path class="st0" d="M46.32,84.46c-9.06,0-17.28-3.6-23.31-9.45c5.26,0.71,17.38-3.98,17.63-18.42h5.61h0.16H52v11.18h11.13V45.65
			c0,0-0.1-8.46,8.22-8.46c0,0,5.29-0.37,7.51,5.99c0.6,2.51,0.93,5.12,0.93,7.82C79.79,69.48,64.8,84.46,46.32,84.46z M46.32,17.54
			c9.07,0,17.29,3.61,23.32,9.46C64.39,26.29,52.25,30.97,52,45.42h-5.61l-0.15,0.01h-5.59V34.26H29.51v22.11
			c0,0,0.1,8.46-8.22,8.46c0,0-5.27,0.37-7.49-5.95c-0.62-2.52-0.94-5.15-0.94-7.87C12.86,32.52,27.84,17.54,46.32,17.54z
			 M46.32,6.39C21.68,6.39,1.7,26.35,1.7,51c0,24.64,19.98,44.61,44.63,44.61S90.94,75.64,90.94,51
			C90.94,26.35,70.97,6.39,46.32,6.39z"/>
	</g>
	<g>
		<path class="st1" d="M230.23,74.79v-0.75c0.01-0.09,0.02-0.16,0.02-0.16l-0.02,0.01V63.6h-15.81v15.21c0,2.78,1.03,4.8,3.1,6.05
			c2.21,1.24,5.83,1.87,10.9,1.87h66.02v-8.07h-59.39C231.05,78.66,230.33,76.18,230.23,74.79z"/>
		<path class="st1" d="M236.73,45.34c2.63,2.73,6.51,5.47,11.63,8.21c4.7,2.48,9.83,4.67,15.39,6.56l7.16-6.41
			c-7.55-2.63-13.53-5.99-17.95-10.07c-5.56-5.18-8.34-11.29-8.34-18.35h20.62v-8.07h-55.98v8.07h19.55
			c0,7.16-2.56,13.27-7.69,18.35c-4.21,4.17-10.01,7.53-17.42,10.07l6.41,6.41c5.41-1.89,10.47-4.08,15.17-6.56
			C230.42,50.76,234.23,48.03,236.73,45.34z"/>
		<path class="st1" d="M293.66,67.94v-43.6c0-0.37,0.01-1.37,0.01-1.37c0-3.61-2.05-5.41-3.73-6.28c-1.89-0.98-4.03-1.13-5.12-1.13
			c-0.25,0-0.6,0.02-0.6,0.02h-6.29l0,52.36H293.66z"/>
		<path class="st1" d="M139.4,59.52c8.14,0,14.95-1.17,20.44-3.49c4.94-2.1,8.06-4.72,9.39-7.88c1.25-3.88,0.59-7.26-1.98-10.13
			c-2.78-3.19-7.62-5.38-14.5-6.57c-14.1-2.97-26.71,0-26.71,0c-6.61,1.28-11.27,3.47-13.98,6.57c-2.57,2.88-3.2,6.17-1.87,9.86
			c1.25,3.19,4.27,5.87,9.08,8.01C124.69,58.32,131.4,59.52,139.4,59.52z M128.71,38.27c2.58-1.64,6.16-2.47,10.75-2.47
			c4.72,0,8.48,0.87,11.26,2.6c2.5,1.61,3.76,3.57,3.76,5.9c0,2.19-1.32,4.04-3.97,5.54c-2.78,1.64-6.47,2.46-11.05,2.46
			c-4.53,0-8.1-0.84-10.75-2.53c-2.36-1.56-3.55-3.47-3.55-5.76C125.16,41.7,126.35,39.78,128.71,38.27z"/>
		<polygon class="st1" points="168.91,21.17 147.63,21.17 147.63,15.43 132.19,15.43 132.19,21.17 110.18,21.17 110.18,29.03 
			168.91,29.03 		"/>
		<path class="st1" d="M134.52,73.92l-0.05,0V63.65h-15.44v15.68c0,2.44,0.9,4.31,2.71,5.61c1.74,1.19,4.17,1.79,7.31,1.79h66.55
			v-8.08h-57.09C133.87,78.26,134.52,73.92,134.52,73.92z"/>
		<path class="st1" d="M194.9,46.09h10.62v-8.51h-10.61l-0.02-15.38l-0.01-0.31c-0.29-3.04-2.21-4.56-3.72-5.35
			c-1.85-0.98-3.71-1.12-4.78-1.12c-0.24,0-0.78,0.01-0.78,0.01h-6.17v52.4h15.46V46.09z"/>
		<path class="st1" d="M389.16,22.2l-0.01-0.31c-0.29-3.04-2.21-4.56-3.72-5.35c-1.85-0.98-3.71-1.12-4.78-1.12
			c-0.24,0-0.78,0.01-0.78,0.01h-6.17v52.4h15.47V46.09h10.62v-8.51h-10.61L389.16,22.2z"/>
		<path class="st1" d="M328.78,73.92l-0.05,0V63.65h-15.44v15.68c0,2.44,0.9,4.31,2.71,5.61c1.74,1.19,4.17,1.79,7.3,1.79h66.55
			v-8.08h-57.09C328.14,78.26,328.78,73.92,328.78,73.92z"/>
		<path class="st1" d="M349.03,34.94c0,2.13-0.15,4.23-0.45,6.31c-0.3,2.08-0.92,3.88-1.85,5.42h13.67c1.19-0.89,2.26-2.56,3.2-5.02
			c0.94-2.46,1.41-4.81,1.41-7.06V17.26h-57.55v8.08h41.57V34.94z"/>
		<path class="st1" d="M488.02,32.94L488,22.2l-0.01-0.31c-0.28-3.04-2.21-4.56-3.72-5.35c-1.85-0.98-3.71-1.12-4.78-1.12
			c-0.23,0-0.78,0.01-0.78,0.01h-6.17v42.79H488V41.45h10.62v-8.51H488.02z"/>
		<path class="st1" d="M447.38,33.33c0,2.14-0.15,3.58-0.45,5.65c-0.3,2.08-0.92,3.88-1.86,5.42h13.67c1.2-0.89,2.27-2.56,3.2-5.02
			c0.94-2.46,1.41-4.15,1.41-6.4V17.2h-57.54v8.08h41.57V33.33z"/>
		<path class="st1" d="M442.65,55.95l4.69-0.02h5.36c0.48,0,0.95-0.01,1.42-0.02l6.52-0.02l0.47-0.03c2.99-0.18,5.8-0.62,8.92-1.78
			l-1.93-8.58c-2.94,0.7-4.99,1.08-6.42,1.29c-3.21,0.35-4.28,0.33-8.33,0.33h-17.26V30.82h-14.04V47.1h-19.71v8.82h40.35
			L442.65,55.95z"/>
		<path class="st1" d="M467.71,60.19c-16.57-3.24-31.38,0-31.38,0c-7.77,1.4-13.24,3.79-16.43,7.18c-3.02,3.13-3.76,6.73-2.21,10.76
			c1.48,3.49,5.02,6.41,10.67,8.75c6.37,2.65,14.26,3.96,23.66,3.96c9.56,0,17.57-1.27,24.02-3.81c5.8-2.29,9.47-5.15,11.03-8.59
			c1.47-4.23,0.7-7.93-2.33-11.06C481.49,63.88,475.8,61.49,467.71,60.19z M466.62,80.27c-3.27,1.79-9.15,2.68-14.53,2.68
			c-5.32,0-11.07-0.91-14.18-2.76c-2.77-1.7-4.17-3.79-4.17-6.29c0-2.53,1.4-4.63,4.17-6.27c3.03-1.8,8.78-2.7,14.18-2.7
			c5.55,0,11.51,0.95,14.79,2.84c2.94,1.75,4.41,3.9,4.41,6.44C471.29,76.61,469.73,78.63,466.62,80.27z"/>
		<path class="st1" d="M343.84,60.3l1.95-0.01h8.06c0.72,0,1.43-0.02,2.14-0.04l5.84-0.02l0.48-0.03c2.98-0.18,5.8-0.62,8.91-1.78
			l-1.94-8.58c-5.51,1.31-8,1.54-8.9,1.57c0,0,0,0,0,0c-0.3,0.01-0.42,0-0.42,0l-0.03,0.02c-1.57,0.05-3.21,0.04-5.43,0.04h-17.26
			V34.41h-14.03v17.06h-19.71v8.83h40.36L343.84,60.3z"/>
	</g>
</g>
</svg>
