<?xml version="1.0" encoding="utf-8"?>
<!-- Generator: Adobe Illustrator 24.3.0, SVG Export Plug-In . SVG Version: 6.00 Build 0)  -->
<svg version="1.1" id="레이어_1" xmlns="http://www.w3.org/2000/svg" xmlns:xlink="http://www.w3.org/1999/xlink" x="0px"
	 y="0px" viewBox="0 0 500 100" style="enable-background:new 0 0 500 100;" xml:space="preserve">
<style type="text/css">
	.st0{fill:#259EDA;}
	.st1{fill:#3A286A;}
</style>
<g>
	<path class="st0" d="M51.19,3.43C25.24,3.43,4.2,24.47,4.2,50.43c0,25.95,21.04,46.99,46.99,46.99s46.99-21.04,46.99-46.99
		C98.19,24.47,77.15,3.43,51.19,3.43z M51.19,14.03c10.54,0,20,4.5,26.64,11.66c-0.34-0.01-0.67-0.03-1.02-0.02
		c-7,0.17-12.26,2.62-15.76,7.36c-2.07,2.8-3.13,7.09-3.28,12.74h-13.2V31.5H34.18v22.13c-0.04,4.33-0.68,7.31-1.91,8.91
		c-1.65,2.19-4.08,3.28-7.29,3.28c-3.37,0.05-5.9-1.05-7.59-3.28c-0.63-0.87-1.51-3.47-1.51-3.47c-0.68-2.77-1.07-5.65-1.07-8.63
		C14.8,30.32,31.1,14.03,51.19,14.03z M51.19,86.81c-10.93,0-20.72-4.85-27.39-12.48c0.55,0.02,1.1,0.04,1.67,0.03
		c7.01-0.17,12.26-2.62,15.76-7.37c2.16-2.92,3.25-7.42,3.31-13.46h13.17v14.99h10.39V46.4c0.05-4.33,0.68-7.3,1.91-8.9
		c1.65-2.18,4.08-3.28,7.29-3.28c3.37-0.04,5.9,1.05,7.59,3.28c0.64,0.87,1.43,3.61,1.43,3.61c0.79,2.98,1.24,6.09,1.24,9.31
		C87.58,70.52,71.29,86.81,51.19,86.81z"/>
	<g>
		<path id="XMLID_7_" class="st1" d="M149.24,55.11h-0.97c-2.37,0-3.78,0.24-4.23,0.71c-0.45,0.48-0.68,1.93-0.68,4.35
			c0,3.17,0.28,5.6,0.83,7.3c0.55,1.7,1.4,2.74,2.56,3.13c0.23,0.08,0.62,0.17,1.16,0.27c1.92,0.36,2.89,1.43,2.89,3.21
			c0,1.72-0.33,2.9-1,3.51c-0.67,0.62-2.49,0.93-5.47,0.93c-0.8,0-2.04-0.04-3.74-0.12c-1.69-0.08-2.98-0.12-3.85-0.12
			c-1.23,0-2.93,0.03-5.09,0.08c-2.16,0.05-3.7,0.08-4.62,0.08h-1.16c-2.82,0-4.59-0.25-5.31-0.75c-0.72-0.5-1.08-1.44-1.08-2.8
			c0-1.96,0.65-3.21,1.97-3.75c0.56-0.23,1.01-0.46,1.35-0.69c0.64-0.44,1.09-1.71,1.35-3.81c0.26-2.1,0.39-5.89,0.39-11.37v-3.94
			c0-6.92-0.1-11.46-0.29-13.61c-0.19-2.15-0.52-3.44-0.98-3.88c-0.26-0.26-0.72-0.54-1.39-0.85c-1.74-0.87-2.62-2.17-2.62-3.9
			c0-1.44,0.29-2.42,0.89-2.93c0.59-0.51,2.16-0.77,4.71-0.77c1.1,0,2.74,0.03,4.91,0.08c2.17,0.05,3.8,0.08,4.88,0.08
			c1.57,0,3.39-0.03,5.48-0.08c2.08-0.05,3.37-0.08,3.86-0.08c1.98,0,3.36,0.24,4.12,0.73c0.77,0.49,1.16,1.35,1.16,2.58
			c0,1.72-0.86,2.92-2.59,3.58c-0.2,0.08-0.37,0.14-0.5,0.19c-1.11,0.49-1.86,1.32-2.26,2.51c-0.4,1.18-0.6,3.48-0.6,6.91
			c0,1.72,0.41,2.76,1.23,3.11c0.82,0.35,3.17,0.52,7.05,0.52h4.4c2.68,0,4.31-0.23,4.89-0.67c0.58-0.45,0.87-1.76,0.87-3.92v-1.81
			c0-1.49-0.13-2.78-0.41-3.88c-0.27-1.09-0.62-1.79-1.06-2.1c-0.15-0.1-0.36-0.24-0.62-0.42c-1.6-1.11-2.39-2.32-2.39-3.63
			c0-1.46,0.31-2.46,0.94-2.99c0.63-0.53,1.78-0.79,3.45-0.79c0.31,0,1.62,0.03,3.92,0.08c2.3,0.05,4.45,0.08,6.46,0.08
			c1.62,0,3.36-0.01,5.23-0.04c1.87-0.03,2.89-0.04,3.07-0.04c2.26,0,3.76,0.3,4.49,0.89c0.73,0.59,1.1,1.63,1.1,3.13
			s-0.77,2.66-2.32,3.51c-0.33,0.18-0.53,0.3-0.58,0.35c-0.85,0.75-1.43,2.33-1.76,4.75c-0.32,2.42-0.48,7.54-0.48,15.37
			c0,6.13,0.17,10.31,0.52,12.55c0.35,2.24,0.96,3.72,1.84,4.44c0.31,0.23,0.73,0.47,1.27,0.7c1.36,0.56,2.04,1.79,2.04,3.67
			c0,1.34-0.29,2.28-0.87,2.82c-0.58,0.54-1.73,0.81-3.45,0.81c-0.13,0-0.53,0-1.2,0c-4.22-0.05-8.56-0.08-13.04-0.08h-0.69
			c-0.82,0-1.85,0.01-3.09,0.04c-1.24,0.02-2.06,0.04-2.47,0.04c-1.49,0-2.61-0.34-3.36-1.02c-0.75-0.68-1.12-1.71-1.12-3.07
			c0-1.34,0.58-2.43,1.73-3.28c0.41-0.31,0.69-0.57,0.85-0.77c0.48-0.57,0.84-1.47,1.07-2.72c0.23-1.25,0.35-2.93,0.35-5.04
			c0-0.46,0.01-1.16,0.04-2.08c0.03-0.93,0.04-1.62,0.04-2.09c0-1.39-0.43-2.27-1.28-2.63c-0.85-0.36-3.28-0.54-7.28-0.54
			L149.24,55.11L149.24,55.11z"/>
		<path class="st1" d="M199.96,61.65l13.43-31.73c0.98-2.34,1.97-3.79,2.97-4.34c1-0.55,2.78-0.83,5.32-0.83
			c2.83,0,4.69,0.17,5.58,0.52c0.89,0.35,1.74,1.45,2.56,3.3l15.16,33.04c0.15,0.33,0.37,0.8,0.66,1.39
			c2.01,4.48,3.79,7.09,5.36,7.83c1.26,0.59,2.04,1.13,2.35,1.6c0.31,0.48,0.46,1.17,0.46,2.06c0,1.67-0.27,2.75-0.81,3.22
			c-0.54,0.48-1.66,0.71-3.36,0.71h-0.73c-1.16,0-2.96-0.02-5.4-0.08c-2.45-0.05-4.32-0.08-5.63-0.08c-1.88,0-4.03,0.04-6.46,0.12
			c-2.43,0.08-3.91,0.11-4.45,0.11c-1.8,0-3.02-0.25-3.65-0.75c-0.63-0.5-0.95-1.49-0.95-2.95c0-1,0.16-1.77,0.48-2.3
			c0.32-0.53,0.89-1.05,1.72-1.56c0.1-0.08,0.27-0.19,0.5-0.35c1.42-0.95,2.12-1.87,2.12-2.74c0-1.03-0.36-1.76-1.08-2.2
			c-0.72-0.44-1.99-0.66-3.82-0.66c-1.36,0-2.75-0.03-4.16-0.08c-0.31,0-0.5,0-0.58,0h-2.43c-3.65,0-5.96,0.24-6.93,0.73
			c-0.97,0.49-1.45,1.38-1.45,2.66c0,1.34,0.77,2.26,2.32,2.78c0.36,0.13,0.64,0.23,0.85,0.31c0.87,0.31,1.48,0.68,1.83,1.12
			c0.35,0.44,0.52,1.07,0.52,1.89c0,1.52-0.33,2.57-1,3.15c-0.67,0.58-1.84,0.87-3.51,0.87c-0.9,0-2.15-0.02-3.75-0.08
			c-1.6-0.05-2.74-0.08-3.44-0.08c-1.03,0-2.26,0.04-3.69,0.12c-1.43,0.08-2.36,0.11-2.8,0.11c-1.34,0-2.28-0.23-2.82-0.69
			c-0.54-0.46-0.81-1.34-0.81-2.62c0-0.82,0.12-1.51,0.35-2.07c0.23-0.55,0.57-0.94,1-1.18c0.05-0.03,0.15-0.08,0.31-0.16
			c1.6-0.75,2.73-1.4,3.4-1.97c1.03-0.88,2.46-3.47,4.29-7.8L199.96,61.65z M217.83,43.2c-0.26,0-0.52,0.15-0.79,0.44
			c-0.27,0.3-0.53,0.73-0.79,1.29c-1.16,2.21-2.09,4.32-2.82,6.33c-0.72,2.01-1.08,3.37-1.08,4.09c0,0.41,0.21,0.7,0.64,0.87
			c0.42,0.17,1.32,0.25,2.68,0.25h2.93c1.44,0,2.39-0.08,2.85-0.25c0.46-0.17,0.69-0.48,0.69-0.95c0-0.56-0.19-1.66-0.58-3.28
			c-0.39-1.62-0.9-3.37-1.54-5.25c-0.49-1.41-0.89-2.36-1.19-2.83C218.52,43.43,218.19,43.2,217.83,43.2z"/>
		<path id="XMLID_4_" class="st1" d="M273.95,27.9l24.37,21.04c0.05,0.05,0.13,0.13,0.23,0.23c0.82,0.75,1.38,1.12,1.66,1.12
			c0.39,0,0.65-0.14,0.81-0.41c0.15-0.27,0.23-0.87,0.23-1.8v-0.73c0-2.5-0.11-4.78-0.33-6.85c-0.22-2.07-0.46-3.39-0.71-3.96
			c-0.54-1.26-1.7-2.19-3.47-2.78c-0.13-0.05-0.21-0.08-0.23-0.08c-0.31-0.1-0.73-0.24-1.27-0.42c-2-0.62-3.01-1.9-3.01-3.86
			c0-1.52,0.31-2.57,0.93-3.15c0.62-0.58,1.79-0.87,3.51-0.87c0.49,0,1.56,0.03,3.22,0.08c1.66,0.05,3.06,0.08,4.19,0.08
			c0.77,0,1.94-0.01,3.51-0.04c1.57-0.03,2.78-0.04,3.63-0.04c1.9,0,3.17,0.24,3.8,0.71c0.63,0.48,0.95,1.37,0.95,2.68
			c0,1.88-0.86,3.24-2.59,4.09c-0.93,0.47-1.57,0.91-1.93,1.35c-0.49,0.59-0.84,1.35-1.04,2.28c-0.21,0.93-0.31,2.52-0.31,4.79v2.2
			l0.08,21.82v0.46c0,0.16,0.01,0.9,0.04,2.24c0.03,1.34,0.04,2.6,0.04,3.78c0,3.04-0.26,5.06-0.77,6.08
			c-0.51,1.02-1.44,1.52-2.78,1.52c-1.44,0-4.36-1.88-8.76-5.64l-0.27-0.23l-20.86-17.96c-0.51-0.44-0.98-0.79-1.41-1.04
			c-0.42-0.26-0.75-0.39-0.99-0.39c-0.41,0-0.69,0.23-0.85,0.68c-0.15,0.45-0.23,1.63-0.23,3.53c0,4.04,0.18,6.78,0.54,8.21
			c0.36,1.43,1.02,2.49,1.97,3.19c0.59,0.44,1.64,0.81,3.13,1.12c0.64,0.16,1.15,0.28,1.51,0.39c0.98,0.31,1.61,0.69,1.91,1.16
			c0.3,0.46,0.45,1.31,0.45,2.55c0,1.26-0.28,2.17-0.83,2.72c-0.55,0.55-1.45,0.83-2.68,0.83c-0.15,0-0.54-0.01-1.16-0.04
			c-2.85-0.18-5.59-0.27-8.21-0.27c-1.62,0-3.38,0.04-5.28,0.12c-1.9,0.08-2.98,0.11-3.24,0.11c-1.67,0-2.78-0.22-3.32-0.67
			c-0.54-0.45-0.81-1.33-0.81-2.65c0-1.8,0.84-3.13,2.52-4c1.68-0.86,2.7-1.57,3.06-2.1c0.54-0.75,0.93-2.58,1.19-5.5
			c0.26-2.92,0.39-7.01,0.39-12.26c0-6-0.13-9.99-0.39-11.99c-0.26-1.99-0.71-3.39-1.35-4.19c-0.39-0.46-1.37-1.07-2.96-1.82
			c-1.59-0.75-2.38-1.87-2.38-3.36c0-1.59,0.28-2.76,0.85-3.49c0.56-0.73,1.46-1.1,2.7-1.1c0.28,0,0.92,0.03,1.91,0.08
			c0.99,0.05,1.83,0.08,2.52,0.08c0.9,0,1.83-0.03,2.79-0.08c0.96-0.05,1.48-0.08,1.56-0.08c0.52,0,1.05,0.16,1.62,0.47
			C271.9,26.16,272.77,26.85,273.95,27.9z"/>
		<path id="XMLID_3_" class="st1" d="M325.27,96.38c-3.6,0-6.21-0.57-7.83-1.7c-1.62-1.13-2.43-2.96-2.43-5.48
			c0-2.78,0.68-5.31,2.03-7.58c1.35-2.28,2.71-3.41,4.07-3.41c1.21,0,2.06,0.98,2.55,2.94c0.02,0.1,0.04,0.18,0.04,0.23
			c0.36,1.39,0.74,2.41,1.16,3.05c0.41,0.64,0.9,0.97,1.46,0.97c1.18,0,2.02-1.76,2.51-5.27c0.49-3.52,0.73-10.04,0.73-19.56V48.55
			c0-5.99-0.19-10-0.56-12c-0.37-2.01-1.06-3.28-2.07-3.82c-0.18-0.1-0.5-0.24-0.97-0.42c-1.73-0.64-2.59-1.84-2.59-3.59
			c0-1.24,0.38-2.1,1.16-2.59c0.77-0.49,2.16-0.73,4.17-0.73c0.36,0,1.66,0.03,3.9,0.08c2.24,0.05,4.31,0.08,6.22,0.08
			c0.64,0,1.96-0.03,3.95-0.08c2-0.05,3.65-0.08,4.96-0.08c2.57,0,4.15,0.26,4.73,0.79c0.58,0.53,0.87,1.6,0.87,3.22
			c0,1.49-0.86,2.69-2.58,3.59c-0.64,0.34-1.09,0.62-1.35,0.85c-0.43,0.41-0.74,1.49-0.92,3.22c-0.18,1.74-0.27,5.32-0.27,10.75
			v3.32c0,2.7,0.02,5.93,0.08,9.69c0.05,3.76,0.08,6.18,0.08,7.26c0,8.7-2.09,15.59-6.26,20.67
			C337.93,93.84,332.32,96.38,325.27,96.38z"/>
		<path id="XMLID_2_" class="st1" d="M376.81,78.28c-4.35,0.05-7.61,0.08-9.8,0.08c-1.7,0-2.87-0.26-3.51-0.79
			c-0.65-0.53-0.96-1.42-0.96-2.68c0-1.95,0.65-3.2,1.96-3.75c0.56-0.23,1.01-0.46,1.35-0.69c0.64-0.44,1.09-1.71,1.35-3.8
			c0.26-2.1,0.39-5.89,0.39-11.37v-3.94c0-6.93-0.1-11.46-0.29-13.61c-0.19-2.15-0.52-3.44-0.98-3.88
			c-0.26-0.26-0.72-0.54-1.39-0.85c-1.75-0.87-2.62-2.17-2.62-3.9c0-1.42,0.28-2.39,0.85-2.92c0.56-0.53,1.65-0.79,3.24-0.79
			c0.18,0,1.43,0.03,3.74,0.08c2.32,0.05,4.55,0.08,6.68,0.08c2.16,0,4.39-0.03,6.68-0.08c2.29-0.05,3.53-0.08,3.71-0.08
			c1.65,0,2.75,0.29,3.32,0.85c0.56,0.57,0.85,1.62,0.85,3.17c0,1.49-0.88,2.69-2.63,3.59c-0.7,0.34-1.16,0.62-1.39,0.85
			c-0.49,0.44-0.82,1.73-1.01,3.88c-0.18,2.15-0.27,6.69-0.27,13.61v3.94c0,5.45,0.13,9.23,0.39,11.33c0.26,2.1,0.73,3.39,1.39,3.88
			c0.31,0.23,0.75,0.45,1.32,0.65c1.32,0.52,1.97,1.77,1.97,3.75c0,1.31-0.32,2.22-0.97,2.72c-0.64,0.5-2.17,0.75-4.57,0.75h-1.51
			c-0.51,0-1.58-0.01-3.18-0.04C379.31,78.3,377.94,78.28,376.81,78.28z"/>
		<path id="XMLID_1_" class="st1" d="M415.78,27.9l24.37,21.04c0.05,0.05,0.13,0.13,0.23,0.23c0.82,0.75,1.38,1.12,1.66,1.12
			c0.38,0,0.66-0.14,0.81-0.41c0.15-0.27,0.23-0.87,0.23-1.8v-0.73c0-2.5-0.11-4.78-0.33-6.85c-0.22-2.07-0.46-3.39-0.71-3.96
			c-0.54-1.26-1.7-2.19-3.48-2.78c-0.12-0.05-0.2-0.08-0.23-0.08c-0.31-0.1-0.73-0.24-1.27-0.42c-2.01-0.62-3.01-1.9-3.01-3.86
			c0-1.52,0.31-2.57,0.93-3.15c0.62-0.58,1.79-0.87,3.51-0.87c0.49,0,1.56,0.03,3.22,0.08c1.66,0.05,3.06,0.08,4.18,0.08
			c0.78,0,1.94-0.01,3.52-0.04c1.57-0.03,2.78-0.04,3.62-0.04c1.9,0,3.17,0.24,3.8,0.71c0.63,0.48,0.94,1.37,0.94,2.68
			c0,1.88-0.86,3.24-2.59,4.09c-0.92,0.47-1.57,0.91-1.93,1.35c-0.49,0.59-0.84,1.35-1.05,2.28c-0.21,0.93-0.31,2.52-0.31,4.79v2.2
			l0.08,21.82v0.46c0,0.16,0.01,0.9,0.04,2.24c0.02,1.34,0.04,2.6,0.04,3.78c0,3.04-0.26,5.06-0.77,6.08
			c-0.51,1.02-1.44,1.52-2.78,1.52c-1.44,0-4.36-1.88-8.76-5.64l-0.27-0.23l-20.86-17.96c-0.51-0.44-0.99-0.79-1.41-1.04
			c-0.43-0.26-0.75-0.39-0.99-0.39c-0.41,0-0.69,0.23-0.85,0.68c-0.15,0.45-0.23,1.63-0.23,3.53c0,4.04,0.18,6.78,0.54,8.21
			c0.36,1.43,1.01,2.49,1.97,3.19c0.59,0.44,1.63,0.81,3.13,1.12c0.64,0.16,1.14,0.28,1.51,0.39c0.98,0.31,1.62,0.69,1.91,1.16
			c0.3,0.46,0.44,1.31,0.44,2.55c0,1.26-0.28,2.17-0.83,2.72c-0.55,0.55-1.45,0.83-2.68,0.83c-0.16,0-0.54-0.01-1.16-0.04
			c-2.85-0.18-5.59-0.27-8.21-0.27c-1.62,0-3.38,0.04-5.28,0.12c-1.9,0.08-2.98,0.11-3.24,0.11c-1.67,0-2.78-0.22-3.32-0.67
			c-0.54-0.45-0.81-1.33-0.81-2.65c0-1.8,0.84-3.13,2.52-4c1.68-0.86,2.7-1.57,3.06-2.1c0.54-0.75,0.93-2.58,1.19-5.5
			c0.26-2.92,0.39-7.01,0.39-12.26c0-6-0.13-9.99-0.38-11.99c-0.26-1.99-0.71-3.39-1.35-4.19c-0.38-0.46-1.37-1.07-2.96-1.82
			c-1.59-0.75-2.38-1.87-2.38-3.36c0-1.59,0.28-2.76,0.85-3.49c0.56-0.73,1.46-1.1,2.69-1.1c0.28,0,0.92,0.03,1.91,0.08
			c0.99,0.05,1.83,0.08,2.53,0.08c0.9,0,1.83-0.03,2.79-0.08c0.96-0.05,1.48-0.08,1.56-0.08c0.51,0,1.05,0.16,1.62,0.47
			C413.72,26.16,414.6,26.85,415.78,27.9z"/>
	</g>
</g>
</svg>
