<?xml version="1.0" encoding="utf-8"?>
<!-- Generator: Adobe Illustrator 24.3.0, SVG Export Plug-In . SVG Version: 6.00 Build 0)  -->
<svg version="1.1" id="레이어_1" xmlns="http://www.w3.org/2000/svg" xmlns:xlink="http://www.w3.org/1999/xlink" x="0px"
	 y="0px" viewBox="0 0 500 100" style="enable-background:new 0 0 500 100;" xml:space="preserve">
<style type="text/css">
	.st0{fill:#00A0E9;}
	.st1{fill:#2D1861;}
</style>
<g>
	<path class="st0" d="M48.54,3.59C22.91,3.59,2.12,24.37,2.12,50c0,25.63,20.78,46.41,46.41,46.41c25.62,0,46.4-20.78,46.4-46.41
		C94.94,24.37,74.16,3.59,48.54,3.59z M15.17,59.68v0.02c-0.9-3.08-1.38-6.32-1.38-9.69c0-19.18,15.55-34.73,34.74-34.73
		c9.16,0,17.5,3.55,23.7,9.35c-0.87-0.13-1.69-0.12-1.69-0.12c-8.96,0-16.22,7.27-16.22,16.22l-0.02,1.2h-0.01v0.32l0,0.03h0v2
		H42.71V31.55H31.23v26.41c-0.21,4.29-3.82,7.7-8.16,7.7C19.31,65.65,16.16,63.1,15.17,59.68z M48.54,84.73
		c-9.16,0-17.49-3.55-23.7-9.34c0.55,0.06,1.11,0.09,1.67,0.09c8.93,0,16.2-7.37,16.2-16.3v-3.33h11.58V68.6h11.49V42.17
		c0.12-4.43,3.71-7.99,8.16-7.99c3.6,0,6.66,2.32,7.77,5.55c-0.01-0.07-0.04-0.13-0.05-0.2c1.04,3.31,1.61,6.82,1.61,10.46
		C83.26,69.18,67.71,84.73,48.54,84.73z"/>
	<polygon class="st1" points="113.83,13.49 111.01,32.06 130.96,31.91 122.88,35.09 116.27,87.98 135.28,87.83 145.76,30.86 
		154.95,30.79 157.94,13.77 	"/>
	<path class="st1" d="M170.81,24.9l18.55,0.01c0,0-17.33,36.76-5,58.65c0,0,31.09-53.69-6.07-68.53l25.89-5.14
		c0,0,34.43,22.58-4.96,77.51l-30.55,0.24C168.66,87.63,144.69,59.92,170.81,24.9z"/>
	<polygon class="st1" points="230.82,22.64 251.81,22.79 242.75,88.3 223.92,88.13 	"/>
	<path class="st1" d="M241.25,14.54l13.65,8.85c0,0,13.94,5.76-7.69,43.89l19.45,1.08c0,0,34.24-43.48,1.09-58.65L241.25,14.54z"/>
	<path class="st1" d="M317.46,9.94l0.06,8.33l-20.38-1.08L282.57,88.3l17.28-0.13l4.52-15.16l10.8-0.08l-0.5,15.44l17.9-0.44
		l6.19-78.14L317.46,9.94z M316.02,62.73l-9.58-0.54l10.52-36.81L316.02,62.73z"/>
	<polygon class="st1" points="379.89,10.38 397.72,10.55 393.92,38.06 376.63,37.88 	"/>
	<path class="st1" d="M376.79,17.51l-20.38-0.15c0,0-19.57,23.3-3.42,36.14c0,0,21.37,10.02,2.35,25.29l-9.81,9.34l28.4-0.56
		c0,0,20.23-16.79,12.42-29.08l-13.07-14.41C373.28,44.08,364.26,35.2,376.79,17.51z"/>
</g>
</svg>
