<?xml version="1.0" encoding="utf-8"?>
<!-- Generator: Adobe Illustrator 24.3.0, SVG Export Plug-In . SVG Version: 6.00 Build 0)  -->
<svg version="1.1" id="레이어_1" xmlns="http://www.w3.org/2000/svg" xmlns:xlink="http://www.w3.org/1999/xlink" x="0px"
	 y="0px" viewBox="0 0 500 100" style="enable-background:new 0 0 500 100;" xml:space="preserve">
<style type="text/css">
	.st0{fill:#00A0E9;}
	.st1{fill:#363581;}
</style>
<g>
	<path class="st0" d="M48.34,3.08c-26.07,0-47.2,21.13-47.2,47.2c0,26.06,21.14,47.2,47.2,47.2c26.06,0,47.2-21.13,47.2-47.2
		C95.54,24.21,74.4,3.08,48.34,3.08z M14.41,60.12v0.02c-0.91-3.13-1.4-6.43-1.4-9.85c0-19.51,15.82-35.32,35.33-35.32
		c9.32,0,17.79,3.61,24.11,9.51c-0.88-0.13-1.72-0.11-1.72-0.11c-9.11,0-16.5,7.39-16.5,16.5l-0.02,1.21h0v0.33l0,0.02h0v2.04H42.42
		V31.52H30.74v26.86c-0.21,4.36-3.89,7.83-8.3,7.83C18.62,66.2,15.41,63.6,14.41,60.12z M48.34,85.61c-9.32,0-17.79-3.61-24.1-9.5
		c0.56,0.06,1.13,0.09,1.71,0.09c9.08,0,16.47-7.49,16.47-16.57v-3.39H54.2V69.2h11.69V42.32c0.12-4.51,3.76-8.12,8.29-8.12
		c3.67,0,6.78,2.35,7.9,5.64c-0.02-0.07-0.04-0.13-0.06-0.2c1.06,3.36,1.63,6.93,1.63,10.64C83.66,69.79,67.85,85.61,48.34,85.61z"
		/>
	<g>
		<path class="st1" d="M138.11,30.95c1.27,1.17,2.25,2.53,2.96,4.08c0.84,1.64,1.27,3.36,1.27,5.14c0,4.65-1.71,8.45-5.13,11.4
			c-3.19,2.86-7.05,4.29-11.6,4.29c-4.45,0-8.32-1.43-11.6-4.29c-3.42-3-5.13-6.8-5.13-11.4c0-1.78,0.35-3.47,1.05-5.07
			c0.61-1.45,1.54-2.84,2.8-4.15h-6.17v-7.12h14.78v-5.69h8.54v5.69h14.56v7.12H138.11z M119.43,34.07
			c-1.74,1.69-2.61,3.72-2.61,6.11c0,2.34,0.87,4.36,2.61,6.04c1.69,1.69,3.71,2.53,6.06,2.53c2.3,0,4.34-0.84,6.13-2.53
			c1.92-1.73,2.89-3.75,2.89-6.04c0-2.39-0.96-4.42-2.89-6.11c-1.74-1.59-3.78-2.39-6.13-2.39
			C123.14,31.68,121.12,32.47,119.43,34.07z M161.78,44v17.56h-7.95V21.4h7.95v15.24h7.94V44H161.78z M111.01,59.89h7.95V73.3h43.2
			v7.24h-46.44c-1.59,0-2.77-0.4-3.52-1.19c-0.8-0.85-1.2-2.2-1.2-4.08V59.89z"/>
		<path class="st1" d="M210.22,28.7h-13.14c0.05,4.87,0.98,8.62,2.81,11.24c2.11,3.04,5.62,4.87,10.54,5.48v7.94
			c-2.62,0-5.55-0.75-8.78-2.25c-4.07-1.92-6.98-4.43-8.71-7.52c-1.83,3.09-4.78,5.57-8.85,7.45c-3.23,1.5-6.14,2.27-8.71,2.32
			v-7.94c4.96-0.61,8.47-2.43,10.54-5.48c1.73-2.53,2.65-6.27,2.74-11.24h-12.93v-7.24h34.49V28.7z M221.11,21.47h7.95v40.11h-7.95
			V21.47z M178.29,60.1h7.95v13.21h43.2v7.24H183c-1.55,0-2.72-0.4-3.52-1.19c-0.8-0.85-1.2-2.2-1.2-4.08V60.1z"/>
		<path class="st1" d="M264.47,45.11c-1.78-1.31-3.23-2.86-4.36-4.64c-1.87,2.77-4.66,5-8.36,6.68c-3.09,1.36-6.16,2.11-9.2,2.25
			v-7.6c4.73-0.56,8.17-2.11,10.33-4.64c1.78-2.06,2.76-4.92,2.95-8.58H242.9v-7.12h34.34v7.12h-12.98c0.19,3.56,1.19,6.4,3.02,8.51
			c2.2,2.53,5.64,4.08,10.32,4.64v5.98c4.49,0.75,8.21,2.72,11.16,5.91c3.32,3.42,4.98,7.53,4.98,12.31c0,5.39-1.99,9.85-5.96,13.36
			c-3.74,3.28-8.14,4.92-13.19,4.92c-5.05,0-9.4-1.64-13.04-4.92c-3.93-3.52-5.89-7.97-5.89-13.36c0-4.5,1.4-8.42,4.2-11.75
			c2.66-3.1,6.04-5.16,10.16-6.19C267.95,47.25,266.1,46.29,264.47,45.11z M267.27,58.3c-2.29,2.11-3.43,4.66-3.43,7.66
			c0,2.95,1.14,5.48,3.43,7.59c2.15,2.06,4.62,3.09,7.42,3.09c2.85,0,5.35-1.03,7.49-3.09c2.24-2.11,3.36-4.64,3.36-7.59
			c0-3-1.12-5.55-3.36-7.66c-2.15-1.97-4.65-2.95-7.49-2.95C271.89,55.35,269.41,56.33,267.27,58.3z M288.27,31.31v-9.85h7.95V49.6
			h-7.95V38.43h-9.34v-7.12H288.27z"/>
		<path class="st1" d="M361.68,47.81c0,1.92-0.4,3.3-1.2,4.15c-0.7,0.75-1.88,1.12-3.52,1.12h-16.52V70.4h24.79v7.36h-57.3V70.4
			h24.8V53.08h-16.57c-1.59,0-2.73-0.37-3.43-1.12c-0.75-0.84-1.12-2.22-1.12-4.15V21.47h7.83v8.36h34.29v-8.36h7.95V47.81z
			 M319.45,45.96h34.29v-9.13h-34.29V45.96z"/>
		<path class="st1" d="M407.58,46.26v2.53h24.79v6.96H417.9c1.54,1.45,2.74,3.07,3.58,4.85c0.93,1.92,1.4,3.98,1.4,6.18
			c0,5.15-1.94,9.41-5.82,12.78c-3.74,3.23-8.16,4.85-13.26,4.85c-5.05,0-9.42-1.62-13.11-4.85c-3.93-3.37-5.89-7.63-5.89-12.78
			c0-2.15,0.47-4.21,1.4-6.18c0.79-1.73,1.96-3.35,3.5-4.85h-14.6v-6.96h24.76v-2.53h-1.05H381.8c-1.59,0-2.74-0.4-3.44-1.19
			c-0.85-0.89-1.27-2.32-1.27-4.29V21.47h53.3v6.88h-45.23v2.18h45.23v6.67h-45.23v2.25h45.25v6.81h-21.35H407.58z M396.12,59.05
			c-2.25,2.15-3.37,4.73-3.37,7.73c0,2.95,1.12,5.5,3.37,7.66c2.25,2.06,4.82,3.09,7.72,3.09c2.85,0,5.38-1.03,7.58-3.09
			c2.34-2.15,3.51-4.7,3.51-7.66c0-3-1.17-5.57-3.51-7.73c-2.2-2.01-4.73-3.02-7.58-3.02C400.94,56.03,398.37,57.03,396.12,59.05z"
			/>
		<path class="st1" d="M465.24,21.47c0,6.74,0.98,11.96,2.95,15.66c2.34,4.31,6.16,6.81,11.45,7.52v7.8
			c-3.79-0.23-7.24-1.24-10.33-3.02c-3.47-2.06-6.18-4.99-8.14-8.78c-2.01,3.79-4.89,6.74-8.64,8.85c-3.18,1.78-6.49,2.76-9.9,2.95
			v-7.73c5.38-0.8,9.18-3.32,11.38-7.59c1.87-3.56,2.81-8.78,2.81-15.66H465.24z M489.68,21.47h7.95v40.11h-7.95V21.47z
			 M446.85,60.1h7.95v13.21H498v7.24h-46.44c-1.55,0-2.72-0.4-3.52-1.19c-0.8-0.85-1.2-2.2-1.2-4.08V60.1z"/>
	</g>
</g>
</svg>
