<?xml version="1.0" encoding="utf-8"?>
<!-- Generator: Adobe Illustrator 24.3.0, SVG Export Plug-In . SVG Version: 6.00 Build 0)  -->
<svg version="1.1" id="레이어_1" xmlns="http://www.w3.org/2000/svg" xmlns:xlink="http://www.w3.org/1999/xlink" x="0px"
	 y="0px" viewBox="0 0 500 100" style="enable-background:new 0 0 500 100;" xml:space="preserve">
<style type="text/css">
	.st0{fill:#004998;}
	.st1{fill:#FFFFFF;}
	.st2{fill:#E6001F;}
	.st3{fill:#002F7B;}
</style>
<g>
	<path class="st0" d="M130.92,29.96c0,0-20.47,1.53-31.5,0.51c0,0-1.31-0.36-1.67,1.16c0,0-0.73,1.16,0.44,1.96
		c1.16,0.8,4.5,2.76,4.5,10.02c0,7.26,0,14.01,0,14.01s0.65,7.69-4.64,10.6c0,0-1.09,0.36-0.51,1.89c0,0,0.08,1.38,1.6,1.16
		c1.52-0.22,10.09-0.87,21.85-0.08c0,0,1.02,0.08,1.3-0.58c0.29-0.65,0.36-0.72,0.36-0.72s1.02-1.02-0.51-2.03
		c-1.52-1.02-4.06-2.54-4.28-9c-0.22-6.46,0-6.6,0-6.6h0.94c0,0,3.26-0.29,5.44,4.64c0,0,4.21,10.16,4.86,11.39
		c0.65,1.23,1.89,3.84,6.46,3.41c4.57-0.43,25.91-1.96,48.56,0.07c0,0,2.47,0.36,3.41-2.03c0,0,3.92-10.53,4.86-12.2
		c0,0,8.28-0.22,12.77-0.14c0,0,1.67,2.83,1.67,6.24c0,3.41-2.97,4.21-2.97,4.21s-1.23,0.51-0.65,2.03c0,0,0.22,1.45,1.67,1.3
		c1.45-0.14,14.45-1.38,34.04-0.14c0,0,1.31,0.51,1.74-1.23c0,0,0.8-1.38-0.58-2.03c0,0-5.15-1.16-5.15-9.36
		c0-8.2,0.08-14.01,0.08-14.01s3.92,5.59,8.56,13.93c4.65,8.35,7.11,11.9,7.11,11.9s2.32,4.5,6.89,2.1
		c4.57-2.4,9.51-5.15,12.34-7.11c0,0,1.09-0.51,0.51-1.89l-0.44-0.87c0,0-0.07-0.51-1.6-0.65c0,0-3.41,0.8-3.48-4.07
		c-0.08-4.86-0.29-11.76,0-18.8c0,0,0.14-4.36,4.14-5.59c0,0,1.45-0.15,0.79-1.89l-0.43-0.87c0,0,0-0.73-1.02-0.58
		c-1.02,0.14-6.68,0.65-12.7,0.14c0,0-1.3,0-1.45,1.45c0,0-0.37,1.31,0.65,1.74c1.02,0.44,4.58,1.74,4.79,7.33
		c0.22,5.59,0.29,13.35,0.29,13.35s-8.27-12.19-13.57-21.55c0,0-0.87-2.54-3.99-2.32c-3.12,0.22-10.6,0.58-16.04,0.07
		c0,0-1.53-0.22-1.74,1.52c0,0-0.43,1.52,0.87,2.18c0,0,4.35,2.76,4.35,3.7c0,0.94-0.07,20.25-0.07,20.25s0.37,7.91-1.74,6.9
		c0,0-1.23,0.79-4.21-4.64c-2.98-5.44-6.82-13.21-13.07-28.31c0,0-1.3-4.21-3.99-4.21c0,0-1.6,0.08-3.27,1.01
		c-1.67,0.95-6.97,3.92-12.48,5.52c0,0-1.46,0.44-1.02,1.89c0,0-0.22,1.09,1.38,1.67c1.6,0.58,2.97,1.23,3.41,2.03
		c0,0-1.67,5.37-4.72,10.89c-3.05,5.51-6.96,14.66-18.22,14.66h-4.43c0,0-1.16,0.14-1.16-1.45c0-1.6,0-11.69,0-11.69h2.9
		c0,0,4.72-1.02,6.97,5.08c0,0,0.44,1.88,2.03,1.16c0,0,1.81-0.22,1.67-2.03c-0.15-1.81-0.29-6.75,0.07-11.1c0,0,0.14-1.31-1.31-1.6
		c0,0-1.16-0.58-2.03,0.37c-0.87,0.94-2.69,3.19-6.82,3.19c-4.14,0-3.41,0-3.41,0V36.35c0,0-0.07-0.72,0.43-0.8
		c0.51-0.07,6.82-1.6,10.53,1.38c3.7,2.98,3.92,4.21,4.72,5.3c0,0,0.73,1.82,2.61,0.58c0,0,1.45-0.22,0.73-2.47
		c-0.73-2.25-0.95-3.05-2.18-8.71c0,0-0.22-2.39-2.69-2.18c-2.47,0.22-17.93,2.03-32.44,0.87c0,0-1.52-0.36-1.81,1.23
		c0,0-0.65,1.09,0.58,2.11c0,0,4.28,1.96,4.28,9.51c0,7.55,0,12.63,0,12.63s0.73,10.02-2.83,10.02c0,0-1.52,0.65-4.14-4.5
		c-2.61-5.16-2.76-5.3-2.76-5.3s-2.11-6.75-11.18-7.04c0,0,12.55-2.1,11.39-11.54c0,0-0.22-7.19-9.65-7.48H130.92z M117.78,47.75
		v-7.11c0,0,0.07-5.3,4.28-5.3c4.21,0,3.68,5.15,3.71,5.81C125.81,41.8,125.54,47.75,117.78,47.75z M194.57,52.54
		c0,0,2.68-6.31,3.85-8.12c0,0,3.27,4.5,4.43,8.2C202.85,52.61,199.14,53.19,194.57,52.54z"/>
	<path class="st0" d="M334.94,55.66c0,0,0.29,9.51-3.27,8.85c0,0-1.23,0.8-4.21-4.64c-2.98-5.45-6.83-13.21-13.07-28.31
		c0,0-1.31-4.21-3.99-4.21c0,0-1.6,0.07-3.27,1.02c-1.67,0.94-6.96,3.92-12.48,5.52c0,0-1.45,0.44-1.02,1.89
		c0,0-0.22,1.09,1.38,1.67c1.6,0.58,2.98,1.23,3.41,2.03c0,0-1.67,5.37-4.72,10.89c-3.05,5.52-5.73,13.57-12.92,17.2
		c0,0-1.39,0.29-0.94,1.96c0.51,1.89,1.45,1.38,1.45,1.38c8.35-0.87,10.89-0.15,12.77,0c1.89,0.14,1.6-1.38,1.6-1.38
		c0.51-0.95-0.14-1.52-0.14-1.52l-0.8-1.02c0,0-3.12-0.8,1.3-9.72c0,0,8.27-0.22,12.78-0.15c0,0,1.67,2.83,1.67,6.24
		c0,3.41-2.98,4.21-2.98,4.21s-1.23,0.51-0.65,2.03c0,0,0.22,1.45,1.67,1.31c1.45-0.15,25.55-1.16,45.15,0.07
		c0,0,1.38,0.07,1.74-1.16c0,0,0.79-1.52-0.58-2.4c0,0-3.85-1.74-4.14-7.91c-0.29-6.17-0.22-17.86-0.22-17.86s-0.29-6.53,3.85-8.56
		c0,0,1.09-0.51,0.51-1.96c0,0-0.29-1.38-1.6-1.23c-1.3,0.14-15.02,0.87-21.48,0.07c0,0-1.45-0.07-1.74,1.16
		c0,0-0.73,1.16,0.51,2.11c1.23,0.94,4.43,3.12,4.43,9.87C334.94,49.85,334.94,55.66,334.94,55.66z M302.06,43.9
		c3.92,5.59,4.43,8.2,4.43,8.2c-3.12,0.51-8.27-0.07-8.27-0.07C299.74,47.97,302.06,43.9,302.06,43.9z"/>
	<path class="st0" d="M392.71,29.39c0,0-15.97,1.89-30.77,0.43c0,0-1.89-0.51-2.11,1.45c0,0-0.14,1.31,0.65,1.81
		c0.8,0.51,4.06,2.47,4.28,9.29c0.22,6.82,0.36,4.86,0.22,14.15c0,0,0.58,8.93-4.5,11.11c0,0-1.31,0.29-0.58,2.18
		c0,0,0.43,1.45,1.67,0.94c0,0,11.9-0.8,22.21,0.07c0,0,1.16,0.44,1.52-1.09c0,0,0.94-1.02-0.51-2.1c-1.45-1.09-4.07-2.98-4.36-7.55
		c-0.29-4.57-0.22-8.2-0.22-8.2h1.02c0,0,3.41-0.44,5.73,4.93c2.32,5.37,3.92,9.29,3.92,9.29s1.52,4.28,3.99,5.66
		c0,0,1.02,0.94,4.79,0.51c0,0,6.17-0.37,12.26-3.19c0,0,1.38-0.29,0.95-1.89c0,0,0.29-1.23-1.45-1.6c-1.74-0.36-3.05-2.03-4.28-4.5
		c-1.24-2.47-3.12-6.1-3.12-6.1s-2.54-6.31-10.82-6.39c0,0,11.4-1.96,11.4-10.53c0-8.56-10.16-8.71-10.16-8.71H392.71z
		 M380.23,47.46v-7.11c0,0,0.15-5.3,4.14-5.3c3.99,0,4.06,4.49,3.85,5.95C388.01,42.46,387.64,47.46,380.23,47.46z"/>
	<path class="st1" d="M97.22,51.14c0,13.28-10.77,24.06-24.06,24.06c-13.29,0-24.06-10.77-24.06-24.06
		c0-13.29,10.77-24.06,24.06-24.06C86.45,27.08,97.22,37.85,97.22,51.14z"/>
	<path class="st2" d="M83.5,36.64c7.33,2.26,12.65,9.08,12.65,17.15c0,1.18-0.11,2.33-0.33,3.44l-0.03,0.16
		c-0.56,3.17-1.84,6.08-3.67,8.57l-0.03,0.04c3.22-4.09,5.13-9.25,5.13-14.86c0-13.29-10.78-24.07-24.07-24.07
		c-6.06,0-11.59,2.24-15.82,5.93l-0.05,0.05c-3.33,3.06-5.42,7.45-5.42,12.33c0,2.02,0.36,3.96,1.01,5.76l0.03,0.08
		c1.67,3.67,5.37,6.22,9.67,6.22c5.86,0,10.62-4.75,10.62-10.61l-0.03-4.57c0-2.1,1.17-3.93,2.9-4.86l0.02-0.01
		c1.35-0.74,2.9-1.17,4.54-1.17c1,0,1.96,0.15,2.87,0.44L83.5,36.64z"/>
	<path class="st0" d="M54.73,66.62c4.42,5.26,11.04,8.6,18.44,8.6c6.06,0,11.59-2.24,15.82-5.93l0.05-0.05
		c3.33-3.06,5.43-7.45,5.43-12.33c0-2.02-0.36-3.96-1.02-5.75l-0.03-0.08c-1.67-3.67-5.37-6.22-9.67-6.22
		c-5.86,0-10.62,4.75-10.62,10.62l0.03,4.57c0,2.1-1.17,3.93-2.9,4.87l-0.02,0.01c-1.35,0.74-2.9,1.17-4.54,1.17
		c-1,0-1.96-0.16-2.87-0.45l-0.01-0.01c-7.33-2.25-12.65-9.08-12.65-17.14c0-1.18,0.11-2.33,0.33-3.44l0.03-0.16
		c0.56-3.16,1.84-6.08,3.68-8.57l0.03-0.04c-3.22,4.09-5.13,9.25-5.13,14.86c0,3.87,0.91,7.52,2.53,10.76l-0.2,0.15
		c0,0-0.94,0.72-2.83-1.45c-1.89-2.18-12.99-15.61-12.99-15.61s7.04-7.55,13.94-10.6c0,0,1.81-0.58,1.38-2.18l-0.29-0.94
		c0,0-0.07-1.02-1.67-0.8c-1.6,0.22-9.15,0.8-16.69,0.07c0,0-1.16,0-1.6,0.94c0,0-0.72,1.23,0,1.96c0.73,0.73,3.34,2.54,3.34,5.01
		c0,0,0.58,1.81-3.41,4.72c-3.99,2.9-6.46,4.79-8.13,5.66l0.07-6.82c0,0-0.22-5.73,3.92-8.42c0,0,1.02-0.44,0.65-1.38l-0.29-0.73
		c0,0-0.22-1.16-1.45-1.02c0,0-7.19,0.8-21.48,0.15c0,0-0.94-0.07-1.31,0.65L2.3,31.85c0,0-0.51,1.31,0.29,1.89
		c0.8,0.58,4.14,2.54,4.28,8.56c0,0,0.36,11.4-0.15,15.82C6.22,62.55,5.86,65.1,2.3,68.22c0,0-0.94,0.72-0.51,1.81l0.51,0.94
		c0,0,0.37,0.73,1.6,0.58c1.23-0.15,10.16-1.02,21.48-0.15c0,0,0.8,0.29,1.16-0.51l0.51-1.02c0,0,0.58-1.02-0.51-1.82
		c-1.09-0.8-3.99-3.12-4.07-7.62c-0.07-4.5-0.07-7.33-0.07-7.33s1.96,0.8,12.41,16.26c0,0,3.7,6.68,11.54,2.54
		c0,0,5.73-3.12,8.13-5.15L54.73,66.62z"/>
	<g>
		<g>
			<g>
				<g>
					<g>
						<path class="st3" d="M487.13,31.04l-0.03,0.03c5.07,5.1,8.4,11.97,8.94,19.69c1.2,17.08-11.68,31.89-28.76,33.09
							c-8.03,0.56-15.55-1.99-21.4-6.62l-0.03,0.03c6.07,5.65,14.37,8.88,23.3,8.25c17.08-1.19,29.96-16.01,28.76-33.08
							C497.32,43.8,493.23,36.24,487.13,31.04z"/>
						<path class="st3" d="M432.19,66.28c-0.99,0.55-1.21,1.38-0.7,2.65c0.46,1.17,1.19,1.67,1.98,1.35
							c0.63-0.24,0.73-0.79,0.47-2.19l-0.11-0.54c-0.25-1.37-0.3-1.97-0.13-2.56c0.16-0.66,0.54-1.1,1.13-1.33
							c1.4-0.56,2.73,0.31,3.51,2.28c0.85,2.13,0.4,3.74-1.27,4.43l-0.41-1.04c1.16-0.5,1.45-1.58,0.83-3.13
							c-0.5-1.26-1.31-1.82-2.15-1.48c-0.68,0.27-0.84,0.9-0.59,2.34l0.09,0.61l0.09,0.53c0.19,1.06,0.2,1.44,0.1,1.89
							c-0.14,0.57-0.5,0.98-1.08,1.21c-1.32,0.53-2.58-0.24-3.29-2.02c-0.77-1.93-0.36-3.36,1.12-4.02L432.19,66.28z"/>
						<path class="st3" d="M431.32,55.08l4.71-3.96l0.03,1.46l-3.99,3.3l1.29,1.42l2.8-0.06l0.02,1.15l-7.99,0.17l-0.03-1.15
							l3.14-0.07h0.43l0.41-0.01l-0.27-0.28l-0.27-0.28l-3.54-3.82l-0.04-1.52L431.32,55.08z"/>
						<path class="st3" d="M434.85,42.71l3.08,1.08l-0.38,1.08l-3.08-1.08l-5.52,1.66l0.46-1.32l3.43-0.96l0.42-0.12
							c0.17-0.05,0.28-0.08,0.58-0.14c-0.27-0.32-0.33-0.39-0.61-0.79l-2.11-2.86l0.44-1.26L434.85,42.71z"/>
						<path class="st3" d="M440.26,28.03l-1.69,2.07l5.04,4.13l-1.21,1.48l-5.05-4.13l-1.68,2.06l-1.14-0.94l4.58-5.6L440.26,28.03z
							"/>
						<path class="st3" d="M451.05,20.46l-4.03,2.36l0.86,1.48l3.71-2.17l0.69,1.19l-3.7,2.16l0.99,1.71l4.11-2.41l0.75,1.28
							l-5.77,3.37l-4.04-6.91l5.69-3.33L451.05,20.46z"/>
						<path class="st3" d="M466.53,23.56l-2.09,0.15l-1.04-1.74l-3.22,0.52l-0.45,1.96l-1.98,0.51l2.09-8.74l1.98-0.31L466.53,23.56
							z M461.95,19.44c-0.44-0.73-0.61-1.06-0.86-1.63c-0.06,0.57-0.14,1-0.34,1.82l-0.33,1.53l2.33-0.37L461.95,19.44z"/>
						<path class="st3" d="M479.36,26.12l-1.68-0.64l0.64-2.38c0.07-0.27,0.17-0.66,0.31-1.15c0.13-0.5,0.25-0.89,0.34-1.18
							c0.1-0.32,0.2-0.65,0.31-1l0.19-0.57c-0.47,0.81-0.66,1.09-1.09,1.74c-0.18,0.29-0.35,0.53-0.49,0.73l-2.27,3.18l-1.45-0.38
							l-0.46-3.82c-0.03-0.2-0.05-0.47-0.07-0.85c-0.03-0.5-0.06-0.88-0.07-1.15c-0.01-0.21-0.01-0.53-0.01-0.97l-0.2,0.97
							c-0.23,1.05-0.34,1.5-0.66,2.76L472.04,24l-1.77-0.28l2-7.82l2.69,0.52l0.38,3.7c0.1,0.87,0.11,1.59,0.08,2.62
							c0.3-0.59,0.41-0.78,0.76-1.32c0.23-0.36,0.43-0.67,0.62-0.95l2.1-3.02l2.55,0.87L479.36,26.12z"/>
						<path class="st3" d="M464.09,41.52c-0.97,0.85-2.89,2.69-4.75,4.47l-2.1,2.02c-1.71-0.31-3.41-0.46-5.15-0.46
							c-3.89,0-7.47,1.07-9.09,2.73c-0.62,0.64-0.93,1.33-0.91,2.05c0.04,1.89,2.19,2.84,2.85,3.08c3.46,1.29,6.36,0.92,9.41-1.22
							c1.69-1.18,3.71-3.06,5.29-4.58c1.23,0.28,2.63,0.65,4.13,1.09l1.38,0.4c-1.79,1.76-3.64,3.63-5.34,5.13l-0.13,0.12
							c-2.38,2.09-4.09,3.6-6.58,4.16c-1.74,0.38-2.98,0.01-3.39-0.23c-0.04,0.01-0.09,0.08-0.09,0.08c1.44,1.19,2.8,1.86,5.14,1.65
							c2.23-0.19,4.8-1.6,7.42-4.06l3.55-3.48l2.49-2.47c0,0.01,5.03,1.48,5.03,1.48c0.04,0.01,0.09,0.02,0.09,0.02
							c-0.05,0-3.12,3.03-3.12,3.03l-2.67,2.66c-2.74,2.66-4.23,4.04-5.83,5.17c-2.64,1.88-4.9,2.86-6.9,2.99
							c-1.03,0.07-2.53-0.01-3.77-0.73c-0.06-0.02-0.13,0.06-0.13,0.06c1.35,1.15,3.01,2.54,5.85,2.46
							c3.23-0.1,6.08-1.65,10.53-5.73c2.03-1.86,4.04-3.95,5.82-5.79l3.31-3.35c2.18,0.48,4.12,0.68,6.27,0.64
							c3.13-0.06,5.8-1.56,5.84-3.28c0.03-1.26-1.01-1.94-1.64-2.34c-0.51-0.34-1.92-1.12-3.85-1.12c-2.35,0-4.8,1.04-7.28,3.08
							l-1.65,1.46c0.02-0.01-0.6-0.16-0.6-0.16l-4.6-1.3c1.36-1.26,2.51-2.35,3.55-3.27c2.52-2.24,5.3-3.16,6.93-3.26
							c1.18-0.08,3.25,0.02,4.1,0.63c0.04-0.01,0.09-0.09,0.09-0.09c-2.27-1.93-4.22-2.2-5.84-2.2c-1.6,0-4.15,0.5-7.28,2.93
							c-1.27,0.99-2.93,2.65-4.67,4.39c0-0.01-2.33-0.71-2.33-0.71l-0.56-0.18l-2.45-0.74c0.05,0,1.4-1.32,1.4-1.32
							c1.65-1.61,3.2-3.14,4.41-4.17c4.42-3.71,7.19-4.19,9.12-4.21c2.12-0.01,3.8,0.43,5,1.3c0.04-0.01,0.09-0.09,0.09-0.09
							c-2.48-2.24-4.26-2.95-7.33-2.98C470.47,37.26,467.24,38.76,464.09,41.52z M446.75,54.75c-1.43-0.1-2.13-0.67-2.13-1.78
							c0-0.15,0.1-3.64,8.12-4.04c0.91-0.05,1.93-0.08,3.49,0.1c-0.07,0.01-0.91,0.78-0.91,0.78l-0.5,0.46
							C452.88,52.01,449.65,54.95,446.75,54.75z M479.18,51.91c2.31-1.56,4.23-2.38,5.42-2.34c0.71,0.02,1.55,0.23,1.55,1.1
							c0,0.9-0.85,1.65-2.52,2.24c-1.46,0.52-3.71,0.66-6.17,0.39C478.14,52.69,478.71,52.23,479.18,51.91z"/>
					</g>
				</g>
				<line class="st3" x1="463.28" y1="53.63" x2="463.28" y2="56.01"/>
			</g>
		</g>
		<g>
			<path class="st3" d="M482.66,19.86c0.26-0.68,1.01-1.02,1.7-0.76c0.69,0.26,1.02,1.01,0.77,1.69c-0.26,0.68-1.01,1.02-1.7,0.76
				C482.74,21.29,482.41,20.54,482.66,19.86z M484.89,20.82c0.27-0.55,0.03-1.22-0.51-1.49c-0.54-0.27-1.22-0.06-1.49,0.49
				c-0.27,0.55-0.03,1.22,0.51,1.49C483.94,21.58,484.62,21.37,484.89,20.82z M484.13,21.24l-0.21-0.11l-0.09-0.78l-0.22-0.11
				l-0.29,0.59l-0.18-0.09l0.64-1.29l0.56,0.28c0.23,0.12,0.43,0.29,0.29,0.57c-0.12,0.25-0.35,0.26-0.58,0.15L484.13,21.24z
				 M483.92,20.17c0.16,0.08,0.42,0.25,0.53,0.04c0.06-0.13-0.1-0.24-0.24-0.31l-0.34-0.17l-0.16,0.33L483.92,20.17z"/>
		</g>
	</g>
</g>
</svg>
