<?xml version="1.0" encoding="utf-8"?>
<!-- Generator: Adobe Illustrator 24.3.0, SVG Export Plug-In . SVG Version: 6.00 Build 0)  -->
<svg version="1.1" id="레이어_1" xmlns="http://www.w3.org/2000/svg" xmlns:xlink="http://www.w3.org/1999/xlink" x="0px"
	 y="0px" viewBox="0 0 500 100" style="enable-background:new 0 0 500 100;" xml:space="preserve">
<style type="text/css">
	.st0{fill-rule:evenodd;clip-rule:evenodd;fill:#57C3EA;}
	.st1{fill:#003894;}
</style>
<path class="st0" d="M47.07,4.63C22,4.63,1.7,24.94,1.7,50C1.7,75.06,22,95.37,47.07,95.37c25.05,0,45.37-20.31,45.37-45.37
	C92.43,24.94,72.12,4.63,47.07,4.63z M47.11,15.78c9.26,0,17.66,3.68,23.83,9.66c-6.3-2.04-11.36,0.64-14.06,3.47
	c-2.43,2.55-3.9,5.32-3.9,10.11v5.65H40.76V33.33H30.09v23.98c0,3.35-0.41,7.07-5.76,8.74c-5.55,1.75-8.4-2.46-9.53-4.54
	c-1.27-3.58-1.97-7.44-1.97-11.46C12.84,31.13,28.17,15.78,47.11,15.78z M47.11,84.33c-9.4,0-17.91-3.79-24.11-9.92
	c6.21,1.93,11.2-0.72,13.87-3.53c2.42-2.55,3.9-5.8,3.9-10.12v-5.43h12.22v11.13h10.68V42.48c0-3.35,0.63-7.27,5.76-8.75
	c5.65-1.62,8.31,1.21,9.66,3.96c1.49,3.83,2.31,8,2.31,12.36C81.38,68.98,66.03,84.33,47.11,84.33z"/>
<g>
	<path class="st1" d="M187.51,70.28l0-0.03l-0.01-0.01l-0.04-0.04c-1.71-0.5-2.49-1.09-3.14-1.76V31.29
		c0.63-0.7,1.21-1.27,2.78-1.71l0.06-0.05l0-0.01c0.02-0.04,0.06-0.08,0.08-0.12l0.02-0.03c0.01-0.04,0.02-0.08,0.03-0.12v-1H170.7
		v0.94c0.03,0.07,0.05,0.14,0.07,0.21l0.04,0.05l0.02,0.03c0.04,0.02,0.08,0.04,0.13,0.06c0.06,0.03,0.12,0.07,0.18,0.11
		c1.4,0.44,1.96,0.97,2.54,1.57v37.2c-0.18,0.19-0.36,0.38-0.58,0.54c-0.65,0.45-1.25,0.86-2.54,1.24l-0.05,0.05l-0.01,0.01
		l-0.02,0.08v1.15h17.05v-1.17L187.51,70.28z"/>
	<path class="st1" d="M325.47,28.26c-13.16,0-23.83,9.7-23.83,21.66s10.67,21.66,23.83,21.66c13.16,0,23.83-9.7,23.83-21.66
		S338.63,28.26,325.47,28.26z M325.47,61.39c-7.29,0-13.21-5.15-13.21-11.47s5.92-11.47,13.21-11.47c7.28,0,13.21,5.15,13.21,11.47
		S332.75,61.39,325.47,61.39z"/>
	<path class="st1" d="M168.15,70.09l-0.04-0.06c-1.65-0.48-2.77-1.04-3.43-1.68L146.54,32.4v-1.13c0.64-0.7,0.48-1.28,2.05-1.71
		l0.09-0.06l0.02-0.06l0.03-0.1v-1.08h-15.02v1.12c0.02,0.03,0.03,0.07,0.03,0.1l0.06,0.06c1.63,0.46,1.47,1.01,2.1,1.66v1.21
		L118.7,66.5h0l-0.17,0.34l-0.74,1.47c-0.65,0.66-1.77,1.22-3.43,1.71l-0.05,0.04l-0.02,0.02c-0.02,0.03-0.04,0.07-0.06,0.1
		l-0.01,0.06l0,0.01v1.08h18.2V70.2l-0.02-0.06c-0.04-0.04-0.08-0.09-0.12-0.13c-1.21-0.37-1.31-0.78-1.95-1.22
		c-0.14-0.09-0.63-0.41-1.04-0.68l3.63-8.26h16.58l3.63,8.24c-0.41,0.27-0.92,0.59-1.06,0.69c-0.65,0.44-0.74,0.86-2,1.23
		c-0.03,0.05-0.06,0.1-0.09,0.15v0v1.14h18.2V70.2C168.17,70.16,168.16,70.13,168.15,70.09z M135.26,54.57l5.96-13.55l5.96,13.55
		H135.26z"/>
	<path class="st1" d="M498.59,70.09l-0.05-0.06c-1.64-0.48-2.77-1.04-3.43-1.68L476.98,32.4v-1.13c0.64-0.7,0.48-1.28,2.05-1.71
		l0.09-0.06l0.02-0.06l0.03-0.1v-1.08h-15.02v1.12c0.02,0.03,0.03,0.07,0.02,0.1l0.06,0.06c1.63,0.46,1.47,1.01,2.11,1.66v1.21
		L449.15,66.5h0l-0.17,0.34l-0.74,1.47c-0.65,0.66-1.77,1.22-3.42,1.71l-0.05,0.04l-0.02,0.02c-0.02,0.03-0.04,0.07-0.06,0.1
		l-0.02,0.06v0.01v1.08h18.2V70.2l-0.02-0.06c-0.04-0.04-0.07-0.09-0.11-0.13c-1.21-0.37-1.31-0.78-1.95-1.22
		c-0.14-0.09-0.63-0.41-1.04-0.68l3.63-8.26h16.58l3.62,8.24c-0.41,0.27-0.92,0.59-1.06,0.69c-0.65,0.44-0.75,0.86-2,1.23
		c-0.03,0.05-0.06,0.1-0.08,0.15l0,0v1.14h18.2V70.2C498.61,70.16,498.6,70.13,498.59,70.09z M465.7,54.57l5.96-13.55l5.96,13.55
		H465.7z"/>
	<path class="st1" d="M439.28,36.43c0.45,0.63,0.77,1.12,0.95,2.24c0.07,0.07,0.15,0.16,0.21,0.23c0.16,0.1,0.32,0.19,0.51,0.26h0.8
		V26.83h-1c-0.09,0.05-0.18,0.1-0.27,0.14c-0.05,0.03-0.1,0.05-0.15,0.08c-0.03,0.08-0.07,0.16-0.14,0.23
		c-0.17,0.66-0.37,0.87-0.6,1.41h-35.57V71.7h35.88c0.14,0.42,0.25,0.62,0.33,1.06c0.08,0.07,0.17,0.15,0.24,0.23
		c0.12,0.03,0.23,0.09,0.32,0.16h0.95V60.68h-1.01c-0.07,0.04-0.14,0.06-0.21,0.09l-0.08,0.06c-0.06,0.15-0.16,0.28-0.28,0.41
		c-0.19,0.75-0.41,1.1-0.67,1.65h-24.84V52.67h16.77c0.31,0.6,0.53,0.99,0.67,1.92c0.07,0.04,0.13,0.08,0.18,0.14l0.04,0.06
		l0.06,0.02h0.02c0.16,0,0.29,0.04,0.4,0.1h0.81V42.42h-1.14c-0.08,0.06-0.16,0.13-0.23,0.19c-0.02,0.05-0.04,0.1-0.06,0.15
		c-0.04,0.07-0.08,0.13-0.13,0.18c-0.22,0.93-0.49,1.37-0.82,1.98h-16.55v-8.49H439.28z"/>
	<path class="st1" d="M240.46,70.2l-0.08-0.05c-1.26-0.38-2.2-0.81-2.86-1.29L228.33,52c5.65-0.96,9.97-5.87,9.97-11.79
		c0-2.08-0.53-4.04-1.47-5.74c-1.96-3.58-5.7-6.03-10.02-6.2h-30.98v0.01h-3.02v0.88c0.03,0.07,0.06,0.13,0.08,0.2l0.09,0.08
		l0.07,0.08c0.11,0.05,0.23,0.11,0.34,0.16c0.07,0.03,0.14,0.08,0.2,0.13c1.13,0.41,1.65,0.9,2.18,1.44v37.2
		c-0.18,0.19-0.36,0.38-0.59,0.54c-0.55,0.38-1.09,0.74-2.04,1.07c-0.09,0.06-0.18,0.12-0.28,0.17c-0.04,0.06-0.08,0.11-0.12,0.17
		c-0.05,0.08-0.11,0.16-0.18,0.22v0.89h17.45v-1.01c-0.13-0.1-0.24-0.22-0.34-0.36c-1.53-0.47-2.59-1.01-3.21-1.63V52.24h10.98
		l7.36,16.47c0,0,0.53,0.67-1.02,1.3h0c-0.11,0.07-0.25,0.13-0.45,0.19c-0.04,0.07-0.08,0.12-0.12,0.19v1.12h17.41v-1.06
		C240.58,70.36,240.52,70.28,240.46,70.2z M224.33,44.47l-0.06-0.01l0.02,0.04h-17.8V36h13.21l4.64,0.05c2.32,0,4.21,1.89,4.21,4.21
		C228.53,42.58,226.65,44.47,224.33,44.47z"/>
	<path class="st1" d="M399.11,70.2l-0.07-0.05c-1.26-0.38-2.2-0.81-2.85-1.29L386.98,52c5.65-0.96,9.96-5.87,9.96-11.79
		c0-2.08-0.53-4.04-1.47-5.74c-1.96-3.58-5.69-6.03-10.01-6.2h-30.98v0.01h-3.01v0.88c0.03,0.07,0.06,0.13,0.08,0.2l0.1,0.08
		l0.06,0.08c0.12,0.05,0.23,0.11,0.34,0.16c0.07,0.03,0.14,0.08,0.2,0.13c1.13,0.41,1.65,0.9,2.19,1.44v37.2
		c-0.19,0.19-0.36,0.38-0.59,0.54c-0.55,0.38-1.09,0.74-2.04,1.07c-0.09,0.06-0.18,0.12-0.28,0.17c-0.04,0.06-0.08,0.11-0.12,0.17
		c-0.05,0.08-0.11,0.16-0.18,0.22v0.89h17.45v-1.01c-0.13-0.1-0.25-0.22-0.34-0.36c-1.53-0.47-2.59-1.01-3.22-1.63V52.24h10.98
		l7.36,16.47c0,0,0.53,0.67-1.02,1.3h0c-0.11,0.07-0.25,0.13-0.44,0.19c-0.04,0.07-0.08,0.12-0.12,0.19v1.12h17.41v-1.06
		C399.23,70.36,399.17,70.28,399.11,70.2z M382.98,44.47l-0.07-0.01l0.02,0.04h-17.8V36h13.21l4.63,0.05c2.33,0,4.21,1.89,4.21,4.21
		C387.19,42.58,385.3,44.47,382.98,44.47z"/>
	<polygon class="st1" points="285.67,30.14 285.68,30.14 285.68,30.14 	"/>
	<polygon class="st1" points="297.18,33.27 297.18,33.27 297.18,33.27 	"/>
	<path class="st1" d="M300.84,30.48c0.27-0.13,0.56-0.26,0.88-0.39l0,0C301.72,30.09,301.44,30.15,300.84,30.48z"/>
	<polygon class="st1" points="260.76,68.64 260.76,68.64 260.76,68.64 	"/>
	<polygon class="st1" points="259.22,70.06 259.2,70.07 259.2,70.07 	"/>
	<path class="st1" d="M285.46,29.99c0.07,0.04,0.14,0.09,0.21,0.15C285.66,30.13,285.58,30.07,285.46,29.99z"/>
	<path class="st1" d="M305.64,70.19L305.64,70.19c-1.43-0.45-2.43-0.96-3.04-1.54l-17.95-23.82l12.54-11.56l0,0l0.32-0.3l0.06-0.04
		c1.01-0.91,1.83-1.53,2.46-1.95c0.22-0.18,0.5-0.34,0.81-0.5c0.59-0.32,0.88-0.39,0.88-0.39l0,0c0.42-0.16,0.88-0.32,1.39-0.47h0
		c0.27-0.09,0.35-0.32,0.35-0.32v-1.04h-3.6h-13.55h-1.89v1c0,0,0.03,0.25,0.24,0.34l0,0c0.27,0.1,0.53,0.24,0.79,0.39
		c0.12,0.08,0.2,0.14,0.21,0.15c-0.07-0.05-0.14-0.1-0.21-0.15c0.07,0.04,0.14,0.09,0.22,0.15c0.24,0.2,0.43,0.48,0.27,0.84
		l-14.36,14.69V31.6c0-0.25,0.11-0.41,0.15-0.46c0.62-0.63,0.37-1.15,1.83-1.55v0c0.17-0.05,0.23-0.26,0.23-0.26v-1.06h-2.21h-10.65
		h-2.18v0.97c0,0,0.03,0.3,0.24,0.37l0,0c1.26,0.39,1.29,0.85,1.71,1.38l0,0h0l0.06,0.07c0.05,0.09,0.11,0.31,0.11,0.86v36.22
		c0,0-0.02,0.28-0.13,0.51l0,0l0,0c-0.02,0.04-0.05,0.09-0.08,0.13c-0.17,0.26-0.61,0.84-1.37,1.25l-0.09,0.05l-0.02,0.01l0,0
		c-0.12,0.06-0.26,0.11-0.42,0.17h0c0,0-0.25,0.06-0.25,0.35v1h2.36h0.05h10.59h0.06h3.28v-0.96c0-0.26-0.24-0.38-0.24-0.38l0,0
		c-1.37-0.41-2.05-0.88-2.7-1.4c-0.27-0.21-0.34-0.74-0.34-0.74V56.26l5.59-5.05l11.48,16.73c0.07,0.1,0.21,0.38,0.17,0.7
		c-0.04,0.24-0.18,0.5-0.55,0.74c0,0-0.51,0.4-0.99,0.64l-0.06,0.03c-0.12,0.06-0.26,0.12-0.43,0.18l0,0c0,0-0.27,0.17-0.27,0.43
		v0.92h2.41h13.54h3.6v-0.9C306.08,70.31,305.64,70.19,305.64,70.19z"/>
</g>
</svg>
