<?xml version="1.0" encoding="utf-8"?>
<!-- Generator: Adobe Illustrator 24.3.0, SVG Export Plug-In . SVG Version: 6.00 Build 0)  -->
<svg version="1.1" id="레이어_1" xmlns="http://www.w3.org/2000/svg" xmlns:xlink="http://www.w3.org/1999/xlink" x="0px"
	 y="0px" viewBox="0 0 500 100" style="enable-background:new 0 0 500 100;" xml:space="preserve">
<style type="text/css">
	.st0{fill-rule:evenodd;clip-rule:evenodd;fill:#009DE2;}
	.st1{fill-rule:evenodd;clip-rule:evenodd;fill:#813A5B;}
	.st2{fill-rule:evenodd;clip-rule:evenodd;fill:none;stroke:#000000;stroke-width:0.216;stroke-miterlimit:22.9256;}
</style>
<g>
	<path class="st0" d="M61.26,25.13c-1.6,6.01-1.73,12.01-1.2,18.02L43.14,55.2V15.09C49.25,18.24,55.27,21.65,61.26,25.13
		L61.26,25.13z M43.14,96.42c6.16-1.97,11.92-8.6,16.92-15.23l-5.6,0.2l-0.2-2l8.21-5.4c-1.3-6.27-1.97-12.55-2.2-18.82l-17.12,6.85
		V96.42z M43.14,55.2l-12.31,8.77C18.55,65.72,8.14,56.75,3.61,39.95c-0.94-3.63-1.6-9.53-1.66-15.5v-1.67
		C2,17.83,2.48,12.99,3.61,9.52c3.47-5.6,12.34-6.61,22.42-2.4c5.78,2.35,11.48,5.05,17.12,7.97V55.2L43.14,55.2z M43.14,62.01
		l-10.91,4.36c-4.8,4.57-6.67,9.51-7.21,14.61c-1.1,6.02,8.04,15.33,14.61,16.01c1.18-0.01,2.35-0.22,3.5-0.58V62.01z"/>
	<g>
		<path class="st1" d="M86.26,55.2l12.31,8.77c12.28,1.75,22.69-7.22,27.22-24.02c0.93-3.61,1.6-9.48,1.66-15.41V22.7
			c-0.05-4.92-0.54-9.73-1.66-13.18c-3.47-5.6-12.34-6.61-22.42-2.4c-5.78,2.35-11.48,5.06-17.12,7.97V55.2L86.26,55.2z
			 M86.26,96.42V62.01l10.91,4.36c4.8,4.57,6.67,9.51,7.21,14.61c1.1,6.02-8.04,15.33-14.61,16.01
			C88.58,96.99,87.42,96.78,86.26,96.42z M68.14,25.13c1.6,6.01,1.73,12.01,1.2,18.02L86.26,55.2V15.09
			C80.16,18.24,74.13,21.65,68.14,25.13L68.14,25.13z M86.26,62.01v34.41c-6.16-1.97-11.92-8.6-16.92-15.23l5.61,0.2l0.2-2
			l-8.21-5.4c1.3-6.27,1.97-12.55,2.2-18.82L86.26,62.01z"/>
		<path class="st2" d="M68.14,25.13c1.6,6.01,1.73,12.01,1.2,18.02l29.23,20.82c12.28,1.75,22.69-7.22,27.22-24.02
			c1.8-6.97,2.6-22.39,0-30.43c-3.47-5.6-12.34-6.61-22.42-2.4C91.33,12.02,79.65,18.43,68.14,25.13L68.14,25.13z M69.15,55.16
			c-0.23,6.27-0.9,12.54-2.2,18.82l8.21,5.4l-0.2,2l-5.61-0.2C75.28,89.06,82.29,96.94,89.76,97c6.57-0.68,15.71-9.99,14.61-16.01
			c-0.53-5.11-2.4-10.04-7.21-14.61L69.15,55.16z"/>
	</g>
	<path class="st1" d="M409.59,25.51h14.98v56.07h-14.98V25.51L409.59,25.51z M363.89,65.83V50.86h15.36V40.48h-15.36V25.51h15.36
		h11.14h3.84v56.07h-14.98V65.83H363.89L363.89,65.83z M452.22,81.58h-14.98V25.51h3.84h11.14h31.11h8.07h6.91v26.5h-14.98V40.48
		h-31.11V81.58z M363.89,25.51v14.97h-15.36v10.38h15.36v14.97h-15.36v15.75h-14.98V25.51h6.53h8.45H363.89z"/>
	<path class="st0" d="M303.22,25.51h11.14h3.84v56.07h-14.98v-41.1h-30.72v41.1h-14.98V25.51h6.53h8.45H303.22L303.22,25.51z
		 M199.52,25.51h14.98v56.07h-3.84h-11.14h-31.11h-8.07h-6.91v-26.5h14.98v11.52h31.11V25.51L199.52,25.51z M227.56,25.51h14.98
		v56.07h-14.98V25.51z"/>
</g>
</svg>
