<?xml version="1.0" encoding="utf-8"?>
<!-- Generator: Adobe Illustrator 24.3.0, SVG Export Plug-In . SVG Version: 6.00 Build 0)  -->
<svg version="1.1" id="레이어_1" xmlns="http://www.w3.org/2000/svg" xmlns:xlink="http://www.w3.org/1999/xlink" x="0px"
	 y="0px" viewBox="0 0 500 100" style="enable-background:new 0 0 500 100;" xml:space="preserve">
<style type="text/css">
	.st0{fill:#003894;}
	.st1{fill:#57C3EA;}
</style>
<g>
	<g>
		<polygon class="st0" points="189.13,34.73 182.2,34.73 182.2,20.99 167.31,20.99 167.31,57.49 182.2,57.49 182.2,45.03 
			189.13,45.03 		"/>
		<polygon class="st0" points="124.37,65.8 124.37,60.57 110.07,60.57 110.07,74.87 119.91,74.87 124.37,74.87 182.2,74.87 
			182.2,65.8 		"/>
		<g>
			<polygon class="st0" points="162.06,20.99 143.14,20.99 143.14,17.66 129.14,17.66 129.14,20.99 109.79,20.99 109.79,29.96 
				162.06,29.96 			"/>
			<path class="st0" d="M152.9,34.38l-8.68,0.04h-15.64l-8.51,0c-6.39,0-11.57,5.08-11.57,11.47c0,6.39,5.18,11.6,11.57,11.6h8.58
				h14.73h9.53c6.39,0,11.57-5.14,11.57-11.54C164.48,39.57,159.3,34.38,152.9,34.38z M148.06,48.46L145,48.44h-18.31h-2.32
				c-1.31,0-2.38-1.02-2.38-2.33c0-1.31,1.06-2.31,2.38-2.31h2.25h18.44h2.99c1.3,0,2.35,1.01,2.35,2.31
				C150.41,47.41,149.36,48.46,148.06,48.46z"/>
		</g>
		<g>
			<polygon class="st0" points="472.18,21.16 453.38,21.16 453.38,17.96 439.39,17.96 439.39,21.16 419.32,21.16 419.32,30.1 
				472.18,30.1 			"/>
			<polygon class="st0" points="498.43,33.6 492.26,33.6 492.26,21.16 478.76,21.16 478.76,52.31 492.26,52.31 492.26,44.5 
				498.43,44.5 			"/>
		</g>
		<path class="st0" d="M483.21,56.33h-7.03h-44.13l-3.55-0.01c-5.25,0-9.5,4.19-9.5,9.43c0,5.19,4.17,9.41,9.33,9.5l15.42,0.05
			h35.01l4.45-0.07c5.17,0,9.36-4.37,9.36-9.54C492.56,60.52,488.37,56.33,483.21,56.33z M477.11,67.87l-23.63-0.01h-18.36
			l-1.15-0.01c-1.12,0-2.02-0.94-2.02-2.06c0-1.07,0.83-1.95,1.88-2.03l5.93-0.01h14.13l23.22,0.01c1.12,0,2.02,0.9,2.02,2.02
			C479.13,66.91,478.23,67.87,477.11,67.87z"/>
		<path class="st0" d="M464.76,33.51l-1.22-0.01h-35.66l-0.13,0c-5.22,0.07-9.43,4.32-9.43,9.56c0,5.23,4.2,9.48,9.42,9.56
			l3.36-0.01h26.07l7.13,0.01c5.28,0,9.56-4.28,9.56-9.56C473.85,37.94,469.82,33.75,464.76,33.51z M458.98,44.77l-10.66-0.01
			h-13.32l-1.15-0.01c-1.12,0-2.02-0.95-2.02-2.06c0-1.07,0.83-1.95,1.88-2.03l0.89,0h14.13l10.26,0.01c1.12,0,2.02,0.91,2.02,2.02
			C461.01,43.81,460.1,44.77,458.98,44.77z"/>
		<path class="st0" d="M382.68,27.31c0-3.36-2.72-6.08-6.08-6.08l-8.91-0.03h-54.72v8.9h54.72v9.33h-20.04V33.6h-14.6v5.83h-20.07
			v9.11h72.32v-9.11h-2.67v-5.72L382.68,27.31z"/>
		<path class="st0" d="M285.91,39.02h-2.67v-5.31l0.06-6.4c0-3.36-2.72-6.08-6.08-6.08l-8.91-0.03h-54.7v8.9h54.7v8.92h-20.02h-14.6
			H213.6v9.11h29.05v5.21h13.53v-5.21h29.72V39.02z"/>
		<path class="st0" d="M283.95,75.18v-7.74l0.06-6.4c0-3.36-2.72-6.08-6.08-6.08l-8.25-0.03h-54.7v8.9h54.7v11.35H283.95z"/>
		<path class="st0" d="M374.6,52.17h-9.35H330.3h-6.92c-6.44,0-11.66,5.22-11.66,11.66c0,6.29,5.11,11.34,11.35,11.58l7.88,0.02
			h36.64l7.01-0.03c6.44,0,11.66-5.12,11.66-11.56C386.26,57.39,381.04,52.17,374.6,52.17z M370.63,66.24l-9.56-0.01h-29.99
			l-3.65,0.01c-1.4,0-2.53-1.03-2.53-2.43c0-1.39,1.13-2.42,2.53-2.42l9.12-0.02h25.39l8.69,0.02c1.4,0,2.53,1.03,2.53,2.42
			C373.16,65.21,372.02,66.24,370.63,66.24z"/>
	</g>
	<path class="st1" d="M41.83,10.85C20.21,10.85,2.68,28.38,2.68,50c0,21.62,17.53,39.15,39.15,39.15S80.98,71.62,80.98,50
		C80.98,28.38,63.45,10.85,41.83,10.85z M41.83,20.05c8.02,0,15.31,3.15,20.69,8.29c-14.2-0.5-15.81,11.93-15.98,15.54h-0.02v0.59
		h-9.37V34.7h-9.8v19.46H27.3c-0.32,8.21-6.59,8.32-6.59,8.32c-5.31,0-7.57-4.76-8.49-7.96c-0.22-1.47-0.34-2.98-0.34-4.52
		C11.88,33.46,25.29,20.05,41.83,20.05z M41.83,79.95c-8.55,0-16.27-3.58-21.72-9.33c15.16,1.15,16.84-11.78,17.02-15.48h0.02v-0.97
		h9.37v10.15h9.8V44.86h0.04c0.32-8.21,6.59-8.32,6.59-8.32c4.58,0,6.89,3.55,8.03,6.58c0.52,2.21,0.8,4.51,0.8,6.88
		C71.78,66.54,58.37,79.95,41.83,79.95z"/>
</g>
</svg>
